<svg width="60" height="60" viewBox="0 0 60 60" fill="none" xmlns="http://www.w3.org/2000/svg">
<path d="M60 30C60 46.5685 46.5685 60 30 60C13.4315 60 0 46.5685 0 30C0 13.4315 13.4315 0 30 0C46.5685 0 60 13.4315 60 30ZM6 30C6 43.2548 16.7452 54 30 54C43.2548 54 54 43.2548 54 30C54 16.7452 43.2548 6 30 6C16.7452 6 6 16.7452 6 30Z" fill="#C1BBEB"/>
<path d="M30 60C22.0435 60 14.4129 56.8393 8.7868 51.2132C3.1607 45.5871 -2.21335e-07 37.9565 0 30C2.21335e-07 22.0435 3.16071 14.4129 8.7868 8.7868C14.4129 3.1607 22.0435 -9.48802e-08 30 0V6C23.6348 6 17.5303 8.52856 13.0294 13.0294C8.52856 17.5303 6 23.6348 6 30C6 36.3652 8.52856 42.4697 13.0294 46.9706C17.5303 51.4714 23.6348 54 30 54V60Z" fill="#4D44B5"/>
</svg>
