<svg width="32" height="32" viewBox="0 0 32 32" fill="none" xmlns="http://www.w3.org/2000/svg">
<path d="M26.6668 5.3335H5.3335C4.27263 5.3335 3.25521 5.75492 2.50507 6.50507C1.75492 7.25521 1.3335 8.27263 1.3335 9.3335V22.6668C1.3335 23.7277 1.75492 24.7451 2.50507 25.4953C3.25521 26.2454 4.27263 26.6668 5.3335 26.6668H26.6668C27.7277 26.6668 28.7451 26.2454 29.4953 25.4953C30.2454 24.7451 30.6668 23.7277 30.6668 22.6668V9.3335C30.6668 8.27263 30.2454 7.25521 29.4953 6.50507C28.7451 5.75492 27.7277 5.3335 26.6668 5.3335ZM28.0002 22.3335L21.4668 16.4668L28.0002 11.8935V22.3335ZM4.00016 11.8935L10.5335 16.4668L4.00016 22.3335V11.8935ZM12.7735 18.0402L15.2402 19.7602C15.4634 19.915 15.7285 19.998 16.0002 19.998C16.2718 19.998 16.537 19.915 16.7602 19.7602L19.2268 18.0402L25.8935 24.0002H6.1335L12.7735 18.0402ZM5.3335 8.00016H26.6668C26.9144 8.00215 27.1566 8.07305 27.3662 8.20493C27.5758 8.33681 27.7445 8.52445 27.8535 8.74683L16.0002 17.0402L4.14683 8.74683C4.25578 8.52445 4.42451 8.33681 4.6341 8.20493C4.84369 8.07305 5.08587 8.00215 5.3335 8.00016Z" fill="#A098AE"/>
</svg>
