<svg width="40" height="40" viewBox="0 0 40 40" fill="none" xmlns="http://www.w3.org/2000/svg">
<path d="M14.2544 3.50909C11.9688 4.64218 10.0463 6.39307 8.70517 8.56319C7.36401 10.7333 6.65779 13.2358 6.66659 15.7869V21.7166C6.66764 22.5871 7.01391 23.4216 7.62942 24.0371C8.24494 24.6526 9.07945 24.9989 9.94992 24.9999H13.3333V34.9999C13.3333 35.4419 13.5088 35.8659 13.8214 36.1784C14.134 36.491 14.5579 36.6666 14.9999 36.6666C15.4419 36.6666 15.8659 36.491 16.1784 36.1784C16.491 35.8659 16.6666 35.4419 16.6666 34.9999V4.99992C16.6663 4.7159 16.5936 4.43664 16.4552 4.18863C16.3167 3.94062 16.1173 3.73207 15.8757 3.58275C15.6341 3.43343 15.3583 3.34829 15.0746 3.33539C14.7909 3.3225 14.5086 3.38229 14.2544 3.50909ZM13.3333 21.6833L9.99992 21.7166V15.7869C9.99492 14.3524 10.2887 12.9326 10.8626 11.618C11.4365 10.3033 12.2779 9.12253 13.3333 8.15092V21.6833ZM29.9999 4.99992V11.6666C29.9993 12.1084 29.8236 12.532 29.5111 12.8445C29.1987 13.1569 28.7751 13.3327 28.3333 13.3333V4.99992C28.3333 4.55789 28.1577 4.13397 27.8451 3.82141C27.5325 3.50885 27.1086 3.33325 26.6666 3.33325C26.2246 3.33325 25.8006 3.50885 25.4881 3.82141C25.1755 4.13397 24.9999 4.55789 24.9999 4.99992V13.3333C24.5581 13.3327 24.1345 13.1569 23.822 12.8445C23.5096 12.532 23.3338 12.1084 23.3333 11.6666V4.99992C23.3333 4.55789 23.1577 4.13397 22.8451 3.82141C22.5325 3.50885 22.1086 3.33325 21.6666 3.33325C21.2246 3.33325 20.8006 3.50885 20.4881 3.82141C20.1755 4.13397 19.9999 4.55789 19.9999 4.99992V11.6666C20.0014 12.9922 20.5286 14.2631 21.466 15.2005C22.4034 16.1379 23.6743 16.6651 24.9999 16.6666V34.9999C24.9999 35.4419 25.1755 35.8659 25.4881 36.1784C25.8006 36.491 26.2246 36.6666 26.6666 36.6666C27.1086 36.6666 27.5325 36.491 27.8451 36.1784C28.1577 35.8659 28.3333 35.4419 28.3333 34.9999V16.6666C29.6589 16.6651 30.9298 16.1379 31.8672 15.2005C32.8045 14.2631 33.3318 12.9922 33.3333 11.6666V4.99992C33.3333 4.55789 33.1577 4.13397 32.8451 3.82141C32.5325 3.50885 32.1086 3.33325 31.6666 3.33325C31.2246 3.33325 30.8006 3.50885 30.4881 3.82141C30.1755 4.13397 29.9999 4.55789 29.9999 4.99992Z" fill="#C1BBEB"/>
</svg>
