<svg width="40" height="40" viewBox="0 0 40 40" fill="none" xmlns="http://www.w3.org/2000/svg">
<path d="M14.2549 3.50909C11.9692 4.64218 10.0468 6.39307 8.70566 8.56319C7.3645 10.7333 6.65828 13.2358 6.66707 15.7869V21.7166C6.66813 22.5871 7.01439 23.4216 7.62991 24.0371C8.24542 24.6526 9.07994 24.9989 9.95041 24.9999H13.3337V34.9999C13.3337 35.4419 13.5093 35.8659 13.8219 36.1784C14.1345 36.491 14.5584 36.6666 15.0004 36.6666C15.4424 36.6666 15.8664 36.491 16.1789 36.1784C16.4915 35.8659 16.6671 35.4419 16.6671 34.9999V4.99992C16.6668 4.7159 16.5941 4.43664 16.4556 4.18863C16.3172 3.94062 16.1178 3.73207 15.8762 3.58275C15.6346 3.43343 15.3588 3.34829 15.0751 3.33539C14.7914 3.3225 14.5091 3.38229 14.2549 3.50909ZM13.3337 21.6833L10.0004 21.7166V15.7869C9.99541 14.3524 10.2892 12.9326 10.8631 11.618C11.437 10.3033 12.2784 9.12253 13.3337 8.15092V21.6833ZM30.0004 4.99992V11.6666C29.9998 12.1084 29.8241 12.532 29.5116 12.8445C29.1992 13.1569 28.7756 13.3327 28.3337 13.3333V4.99992C28.3337 4.55789 28.1581 4.13397 27.8456 3.82141C27.533 3.50885 27.1091 3.33325 26.6671 3.33325C26.225 3.33325 25.8011 3.50885 25.4886 3.82141C25.176 4.13397 25.0004 4.55789 25.0004 4.99992V13.3333C24.5586 13.3327 24.135 13.1569 23.8225 12.8445C23.5101 12.532 23.3343 12.1084 23.3337 11.6666V4.99992C23.3337 4.55789 23.1581 4.13397 22.8456 3.82141C22.533 3.50885 22.1091 3.33325 21.6671 3.33325C21.225 3.33325 20.8011 3.50885 20.4886 3.82141C20.176 4.13397 20.0004 4.55789 20.0004 4.99992V11.6666C20.0019 12.9922 20.5291 14.2631 21.4665 15.2005C22.4038 16.1379 23.6748 16.6651 25.0004 16.6666V34.9999C25.0004 35.4419 25.176 35.8659 25.4886 36.1784C25.8011 36.491 26.225 36.6666 26.6671 36.6666C27.1091 36.6666 27.533 36.491 27.8456 36.1784C28.1581 35.8659 28.3337 35.4419 28.3337 34.9999V16.6666C29.6594 16.6651 30.9303 16.1379 31.8677 15.2005C32.805 14.2631 33.3323 12.9922 33.3337 11.6666V4.99992C33.3337 4.55789 33.1581 4.13397 32.8456 3.82141C32.533 3.50885 32.1091 3.33325 31.6671 3.33325C31.225 3.33325 30.8011 3.50885 30.4886 3.82141C30.176 4.13397 30.0004 4.55789 30.0004 4.99992Z" fill="#4D44B5"/>
</svg>
