<svg width="32" height="32" viewBox="0 0 32 32" fill="none" xmlns="http://www.w3.org/2000/svg">
<path d="M12.2632 2.66663L11.4168 6.46611C10.9355 6.69774 10.4753 6.96454 10.034 7.26558L6.32048 6.09631L2.5835 12.5703L5.3986 15.1484C5.28861 15.9648 5.33843 16.3672 5.3986 16.8515L2.5835 19.4296L6.32048 25.9036L10.034 24.7343C10.4753 25.0354 10.9355 25.3022 11.4168 25.5338L12.2632 29.3333H19.7371L20.5835 25.5338C21.0649 25.3022 21.525 25.0354 21.9663 24.7343L25.6798 25.9036L29.4168 19.4296L26.6017 16.8515C26.6247 16.5681 26.6665 16.2845 26.6668 16C26.6679 15.7068 26.6217 15.4107 26.6017 15.1484L29.4168 12.5703L25.6798 6.09631L21.9663 7.26558C21.525 6.96454 21.0649 6.69774 20.5835 6.46611L19.7371 2.66663H12.2632ZM14.4038 5.33329H17.5965L18.2554 8.29163L18.9168 8.55204C19.6651 8.84507 20.3645 9.24841 20.9923 9.74996L21.5496 10.1927L24.4403 9.28381L26.0366 12.0494L23.8022 14.0989L23.909 14.802C24.0347 15.5796 24.0103 16.4745 23.909 17.1979L23.8022 17.901L26.0366 19.9505L24.4403 22.7161L21.5496 21.8073L20.9923 22.25C20.3645 22.7515 19.6651 23.1548 18.9168 23.4479L18.2554 23.7083L17.5965 26.6666H14.4038L13.745 23.7083L13.0835 23.4479C12.3353 23.1548 11.6358 22.7515 11.008 22.25L10.4507 21.8073L7.56006 22.7161L5.9637 19.9505L8.19808 17.901L8.09131 17.1979C7.96108 16.4046 7.98107 15.4967 8.09131 14.802L8.19808 14.0989L5.9637 12.0494L7.56006 9.28381L10.4507 10.1927L11.008 9.74996C11.6358 9.24841 12.3353 8.84507 13.0835 8.55204L13.745 8.29163L14.4038 5.33329ZM16.0002 10.6666C13.0704 10.6666 10.6668 13.0702 10.6668 16C10.6668 18.9297 13.0704 21.3333 16.0002 21.3333C18.9299 21.3333 21.3335 18.9297 21.3335 16C21.3335 13.0702 18.9299 10.6666 16.0002 10.6666ZM16.0002 13.3333C17.4887 13.3333 18.6668 14.5114 18.6668 16C18.6668 17.4885 17.4887 18.6666 16.0002 18.6666C14.5116 18.6666 13.3335 17.4885 13.3335 16C13.3335 14.5114 14.5116 13.3333 16.0002 13.3333Z" fill="#A098AE"/>
</svg>
