<svg width="111" height="21" viewBox="0 0 111 21" fill="none" xmlns="http://www.w3.org/2000/svg">
<g clip-path="url(#clip0_1_1645)">
<path fill-rule="evenodd" clip-rule="evenodd" d="M17.0189 19.9867C16.2107 19.9831 15.5584 19.3249 15.562 18.5167L15.5876 12.7255L10.4316 15.7023C9.73171 16.1065 8.8367 15.8666 8.43259 15.1667C8.02847 14.4668 8.26829 13.5717 8.96823 13.1676L13.9304 10.3027L8.91945 7.40964C8.21951 7.00553 7.97969 6.11052 8.3838 5.41058C8.78792 4.71064 9.68293 4.47082 10.3829 4.87493L15.6091 7.89227L15.6355 1.93154C15.639 1.12333 16.2971 0.471043 17.1053 0.474624C17.9136 0.478205 18.5658 1.1363 18.5623 1.94451L18.537 7.64308L23.3316 4.87493C24.0316 4.47082 24.9265 4.71064 25.3307 5.41058C25.7348 6.11052 25.495 7.00553 24.795 7.40964L19.784 10.3027L24.7462 13.1676C25.4462 13.5717 25.686 14.4668 25.2819 15.1667C24.8777 15.8666 23.9828 16.1065 23.2828 15.7023L18.5135 12.9488L18.4887 18.5297C18.4852 19.3379 17.8271 19.9902 17.0189 19.9867Z" fill="white"/>
</g>
<defs>
<clipPath id="clip0_1_1645">
<rect width="110" height="20" fill="white" transform="translate(0.75 0.078125)"/>
</clipPath>
</defs>
</svg>
