<svg width="25" height="25" viewBox="0 0 25 25" fill="none" xmlns="http://www.w3.org/2000/svg">
<g clip-path="url(#clip0_1_1676)">
<path d="M5.29336 15.2443C5.29336 16.6319 4.15981 17.7655 2.77218 17.7655C1.38456 17.7655 0.251007 16.6319 0.251007 15.2443C0.251007 13.8567 1.38456 12.7231 2.77218 12.7231H5.29336V15.2443Z" fill="white" fill-opacity="0.4"/>
<path d="M6.56372 15.2443C6.56372 13.8567 7.69727 12.7231 9.0849 12.7231C10.4725 12.7231 11.6061 13.8567 11.6061 15.2443V21.557C11.6061 22.9446 10.4725 24.0782 9.0849 24.0782C7.69727 24.0782 6.56372 22.9446 6.56372 21.557V15.2443Z" fill="white" fill-opacity="0.4"/>
<path d="M9.08487 5.12047C7.69724 5.12047 6.56369 3.98692 6.56369 2.59929C6.56369 1.21167 7.69724 0.078125 9.08487 0.078125C10.4725 0.078125 11.6061 1.21167 11.6061 2.59929V5.12047H9.08487Z" fill="white" fill-opacity="0.4"/>
<path d="M9.08486 6.39062C10.4725 6.39062 11.606 7.52417 11.606 8.91179C11.606 10.2994 10.4725 11.4329 9.08486 11.4329H2.77215C1.38453 11.4329 0.250977 10.2994 0.250977 8.91179C0.250977 7.52417 1.38453 6.39062 2.77215 6.39062H9.08486Z" fill="white" fill-opacity="0.4"/>
<path d="M19.2086 8.91179C19.2086 7.52417 20.3422 6.39062 21.7298 6.39062C23.1174 6.39062 24.251 7.52417 24.251 8.91179C24.251 10.2994 23.1174 11.4329 21.7298 11.4329H19.2086V8.91179Z" fill="white" fill-opacity="0.4"/>
<path d="M17.9383 8.91201C17.9383 10.2996 16.8048 11.4331 15.4171 11.4331C14.0295 11.4331 12.896 10.2996 12.896 8.91201V2.59929C12.896 1.21167 14.0295 0.078125 15.4171 0.078125C16.8048 0.078125 17.9383 1.21167 17.9383 2.59929V8.91201Z" fill="white" fill-opacity="0.4"/>
<path d="M15.4171 19.0356C16.8048 19.0356 17.9383 20.1692 17.9383 21.5568C17.9383 22.9444 16.8048 24.078 15.4171 24.078C14.0295 24.078 12.896 22.9444 12.896 21.5568V19.0356H15.4171Z" fill="white" fill-opacity="0.4"/>
<path d="M15.4171 17.7655C14.0295 17.7655 12.896 16.6319 12.896 15.2443C12.896 13.8567 14.0295 12.7231 15.4171 12.7231H21.7298C23.1175 12.7231 24.251 13.8567 24.251 15.2443C24.251 16.6319 23.1175 17.7655 21.7298 17.7655H15.4171Z" fill="white" fill-opacity="0.4"/>
</g>
<defs>
<clipPath id="clip0_1_1676">
<rect width="24" height="24" fill="white" transform="translate(0.250977 0.078125)"/>
</clipPath>
</defs>
</svg>
