<svg width="24" height="24" viewBox="0 0 24 24" fill="none" xmlns="http://www.w3.org/2000/svg">
<path d="M15.7054 6.52491C15.7054 6.73116 15.6913 6.93741 15.6656 7.14132C15.6773 7.05928 15.689 6.97491 15.6984 6.89288C15.6421 7.30069 15.5343 7.69678 15.3773 8.07647C15.4077 8.00147 15.4405 7.92647 15.471 7.85147C15.314 8.22178 15.1124 8.56866 14.8663 8.88741C14.9155 8.82413 14.9648 8.76085 15.014 8.69757C14.7702 9.01163 14.4866 9.29522 14.1726 9.53897C14.2359 9.48975 14.2991 9.44053 14.3624 9.39132C14.0437 9.63507 13.6968 9.83897 13.3265 9.996C13.4015 9.96553 13.4765 9.93272 13.5515 9.90225C13.1718 10.0593 12.7757 10.1671 12.3679 10.2233C12.4499 10.2116 12.5343 10.1999 12.6163 10.1905C12.2062 10.2444 11.7937 10.2444 11.3835 10.1905C11.4655 10.2023 11.5499 10.214 11.632 10.2233C11.2241 10.1671 10.828 10.0593 10.4484 9.90225C10.5234 9.93272 10.5984 9.96553 10.6734 9.996C10.303 9.83897 9.95617 9.63741 9.63742 9.39132C9.7007 9.44053 9.76398 9.48975 9.82726 9.53897C9.5132 9.29522 9.22961 9.01163 8.98586 8.69757C9.03508 8.76085 9.08429 8.82413 9.13351 8.88741C8.88976 8.56866 8.68586 8.22178 8.52883 7.85147C8.55929 7.92647 8.59211 8.00147 8.62258 8.07647C8.46554 7.69678 8.35773 7.30069 8.30148 6.89288C8.3132 6.97491 8.32492 7.05928 8.33429 7.14132C8.28039 6.73116 8.28039 6.31866 8.33429 5.9085C8.32258 5.99053 8.31086 6.07491 8.30148 6.15694C8.35773 5.74913 8.46554 5.35303 8.62258 4.97335C8.59211 5.04835 8.55929 5.12335 8.52883 5.19835C8.68586 4.82803 8.88742 4.48116 9.13351 4.16241C9.08429 4.22569 9.03508 4.28897 8.98586 4.35225C9.22961 4.03819 9.5132 3.7546 9.82726 3.51085C9.76398 3.56007 9.7007 3.60928 9.63742 3.6585C9.95617 3.41475 10.303 3.21085 10.6734 3.05382C10.5984 3.08428 10.5234 3.1171 10.4484 3.14757C10.828 2.99053 11.2241 2.88272 11.632 2.82647C11.5499 2.83819 11.4655 2.84991 11.3835 2.85928C11.7937 2.80538 12.2062 2.80538 12.6163 2.85928C12.5343 2.84757 12.4499 2.83585 12.3679 2.82647C12.7757 2.88272 13.1718 2.99053 13.5515 3.14757C13.4765 3.1171 13.4015 3.08428 13.3265 3.05382C13.6968 3.21085 14.0437 3.41241 14.3624 3.6585C14.2991 3.60928 14.2359 3.56007 14.1726 3.51085C14.4866 3.7546 14.7702 4.03819 15.014 4.35225C14.9648 4.28897 14.9155 4.22569 14.8663 4.16241C15.1101 4.48116 15.314 4.82803 15.471 5.19835C15.4405 5.12335 15.4077 5.04835 15.3773 4.97335C15.5343 5.35303 15.6421 5.74913 15.6984 6.15694C15.6866 6.07491 15.6749 5.99053 15.6656 5.9085C15.6913 6.11241 15.703 6.31866 15.7054 6.52491C15.7077 7.01475 16.1343 7.48585 16.6429 7.46241C17.1491 7.43897 17.5827 7.04991 17.5804 6.52491C17.5757 5.40225 17.2382 4.25382 16.5773 3.33975C16.3991 3.09366 16.2093 2.85225 15.9984 2.63428C15.7851 2.41397 15.5507 2.22413 15.307 2.03897C14.864 1.70147 14.3695 1.45303 13.8445 1.26085C11.728 0.485066 9.1757 1.17647 7.74367 2.92022C7.54679 3.15928 7.35929 3.40772 7.19992 3.67491C7.04054 3.93975 6.91632 4.221 6.80148 4.50694C6.58586 5.03663 6.4757 5.59913 6.43117 6.16866C6.34445 7.28428 6.63507 8.44913 7.21632 9.40538C7.77648 10.3288 8.62258 11.121 9.61164 11.5687C9.90226 11.6999 10.1999 11.8218 10.5093 11.9085C10.8163 11.9929 11.128 12.0398 11.4445 12.0773C12.021 12.1452 12.6093 12.0983 13.1788 11.9835C15.3421 11.5429 17.1538 9.6796 17.489 7.49288C17.5382 7.17413 17.5757 6.85538 17.5757 6.53194C17.5781 6.0421 17.1421 5.571 16.6382 5.59444C16.132 5.61085 15.7054 5.99991 15.7054 6.52491ZM18.8156 21.1804C18.3562 21.1804 17.8968 21.1804 17.4374 21.1804C16.3429 21.1804 15.2507 21.1804 14.1562 21.1804C12.839 21.1804 11.5218 21.1804 10.2023 21.1804C9.06554 21.1804 7.92882 21.1804 6.78976 21.1804C6.25773 21.1804 5.7257 21.1851 5.19367 21.1804C5.13507 21.1804 5.07648 21.1757 5.02023 21.1687C5.10226 21.1804 5.18663 21.1921 5.26867 21.2015C5.17492 21.1874 5.08585 21.1616 4.99913 21.1265C5.07413 21.1569 5.14913 21.1898 5.22413 21.2202C5.13038 21.1804 5.04367 21.1288 4.96163 21.0655C5.02492 21.1148 5.0882 21.164 5.15148 21.2132C5.08117 21.1546 5.01554 21.0913 4.95929 21.021C5.00851 21.0843 5.05773 21.1476 5.10695 21.2108C5.04367 21.1288 4.99445 21.0421 4.95226 20.9483C4.98273 21.0233 5.01554 21.0983 5.04601 21.1733C5.01085 21.0866 4.98742 20.9952 4.97101 20.9038C4.98273 20.9858 4.99445 21.0702 5.00382 21.1523C4.96632 20.8687 4.9921 20.5687 4.9921 20.2827C4.9921 19.9476 4.9921 19.6148 4.9921 19.2796C4.9921 19.0288 5.00617 18.7804 5.03898 18.5319C5.02726 18.614 5.01554 18.6983 5.00617 18.7804C5.07179 18.2999 5.19835 17.8288 5.3882 17.3812C5.35773 17.4562 5.32492 17.5312 5.29445 17.6062C5.47726 17.1796 5.71164 16.7788 5.99523 16.4108C5.94601 16.4741 5.89679 16.5374 5.84757 16.6007C6.13117 16.2374 6.45695 15.9093 6.82257 15.6257C6.75929 15.6749 6.69601 15.7241 6.63273 15.7733C7.0007 15.4898 7.40148 15.2554 7.82804 15.0726C7.75304 15.103 7.67804 15.1358 7.60304 15.1663C8.0507 14.9788 8.51945 14.8499 9.00226 14.7843C8.92023 14.796 8.83586 14.8077 8.75383 14.8171C9.1007 14.7726 9.44523 14.7702 9.79445 14.7702C10.2234 14.7702 10.6523 14.7702 11.0812 14.7702C12.082 14.7702 13.0827 14.7702 14.0835 14.7702C14.4702 14.7702 14.8546 14.7679 15.2413 14.8171C15.1593 14.8054 15.0749 14.7937 14.9929 14.7843C15.4734 14.8499 15.9445 14.9765 16.3921 15.1663C16.3171 15.1358 16.2421 15.103 16.1671 15.0726C16.5937 15.2554 16.9945 15.4898 17.3624 15.7733C17.2991 15.7241 17.2359 15.6749 17.1726 15.6257C17.5359 15.9093 17.864 16.2351 18.1476 16.6007C18.0984 16.5374 18.0491 16.4741 17.9999 16.4108C18.2835 16.7788 18.5179 17.1796 18.7007 17.6062C18.6702 17.5312 18.6374 17.4562 18.607 17.3812C18.7945 17.8288 18.9234 18.2976 18.989 18.7804C18.9773 18.6983 18.9656 18.614 18.9562 18.5319C19.0007 18.8858 19.0031 19.2374 19.0031 19.5937C19.0031 19.9804 19.0031 20.3671 19.0031 20.7538C19.0031 20.8874 19.0077 21.021 18.9913 21.1523C19.0031 21.0702 19.0148 20.9858 19.0241 20.9038C19.0101 20.9976 18.9843 21.0866 18.9491 21.1733C18.9796 21.0983 19.0124 21.0233 19.0429 20.9483C19.0031 21.0421 18.9515 21.1288 18.8882 21.2108C18.9374 21.1476 18.9866 21.0843 19.0359 21.021C18.9773 21.0913 18.914 21.1569 18.8437 21.2132C18.907 21.164 18.9702 21.1148 19.0335 21.0655C18.9515 21.1288 18.8648 21.178 18.771 21.2202C18.846 21.1898 18.921 21.1569 18.996 21.1265C18.9093 21.1616 18.8179 21.1851 18.7265 21.2015C18.8085 21.1898 18.8929 21.178 18.9749 21.1687C18.9234 21.1757 18.8695 21.178 18.8156 21.1804C18.5741 21.1827 18.3257 21.2835 18.1523 21.4546C17.9906 21.6163 17.8663 21.8835 17.8781 22.1179C17.9015 22.6194 18.2906 23.0624 18.8156 23.0554C19.7273 23.0413 20.5288 22.446 20.796 21.5718C20.9015 21.2249 20.8781 20.8523 20.8781 20.496C20.8781 19.6804 20.9038 18.8718 20.7632 18.0632C20.557 16.8796 19.9616 15.7663 19.146 14.8921C18.3304 14.0179 17.2335 13.3757 16.0734 13.0898C15.4077 12.9257 14.7374 12.8999 14.0577 12.8999C13.3593 12.8999 12.6632 12.8999 11.9648 12.8999C11.2757 12.8999 10.589 12.8999 9.89992 12.8999C9.20383 12.8999 8.51242 12.9327 7.83507 13.1132C6.68429 13.4179 5.60148 14.0671 4.80226 14.9483C3.99601 15.8366 3.41241 16.9523 3.22257 18.1429C3.09601 18.9421 3.12179 19.7437 3.12179 20.5499C3.12179 20.9202 3.1007 21.3069 3.23429 21.6608C3.40773 22.1155 3.68429 22.4741 4.08976 22.7437C4.40617 22.9523 4.80695 23.053 5.18195 23.0577C5.36476 23.0601 5.54757 23.0577 5.73039 23.0577C6.19914 23.0577 6.66554 23.0577 7.13429 23.0577C7.79992 23.0577 8.4632 23.0577 9.12883 23.0577C9.90226 23.0577 10.6757 23.0577 11.4491 23.0577C12.2437 23.0577 13.0359 23.0577 13.8304 23.0577C14.557 23.0577 15.2812 23.0577 16.0077 23.0577C16.5773 23.0577 17.1468 23.0577 17.714 23.0577C18.0398 23.0577 18.3656 23.0577 18.6913 23.0577C18.7335 23.0577 18.7757 23.0577 18.8179 23.0577C19.3077 23.0577 19.7788 22.6265 19.7554 22.1202C19.732 21.6093 19.3429 21.1804 18.8156 21.1804Z" fill="white"/>
</svg>
