<svg width="11" height="11" viewBox="0 0 11 11" fill="none" xmlns="http://www.w3.org/2000/svg">
<path fill-rule="evenodd" clip-rule="evenodd" d="M5.47769 10.9977C5.02215 10.9957 4.6545 10.6247 4.65652 10.1692L4.67099 6.90505L1.76488 8.58287C1.37037 8.81069 0.86591 8.67547 0.638139 8.28098C0.410367 7.88649 0.545537 7.38202 0.940049 7.15425L3.7369 5.53945L0.912555 3.90884C0.518043 3.68106 0.382873 3.1766 0.610645 2.78209C0.838416 2.38758 1.34288 2.25241 1.73739 2.48018L4.68306 4.18086L4.69794 0.821176C4.69996 0.365643 5.07088 -0.00201037 5.52642 8.27305e-06C5.98199 0.00202637 6.34959 0.372951 6.34761 0.82849L6.33337 4.04041L9.03574 2.48018C9.43029 2.25241 9.9347 2.38758 10.1625 2.78209C10.3903 3.1766 10.2551 3.68106 9.86058 3.90884L7.03624 5.53945L9.83308 7.15425C10.2276 7.38202 10.3628 7.88649 10.135 8.28098C9.90721 8.67547 9.40279 8.81069 9.00825 8.58287L6.32012 7.03092L6.30615 10.1765C6.30417 10.632 5.93323 10.9997 5.47769 10.9977Z" fill="white"/>
</svg>
