<svg width="39" height="11" viewBox="0 0 39 11" fill="none" xmlns="http://www.w3.org/2000/svg">
<path d="M6.93826 4.06246L5.45653 4.32491C5.39455 4.13536 5.29612 3.95493 5.16124 3.78361C5.03003 3.61229 4.85143 3.47195 4.62543 3.3626C4.39942 3.25325 4.11694 3.19857 3.77794 3.19857C3.31504 3.19857 2.92863 3.30246 2.61883 3.51023C2.30896 3.71436 2.15406 3.97862 2.15406 4.30304C2.15406 4.58371 2.25793 4.80971 2.46573 4.98103C2.67348 5.15234 3.00881 5.29268 3.47176 5.40204L4.80584 5.70824C5.5786 5.88685 6.15456 6.16201 6.53365 6.53385C6.91274 6.90563 7.10229 7.3886 7.10229 7.98275C7.10229 8.48579 6.95646 8.93411 6.66485 9.32778C6.37688 9.71782 5.97414 10.024 5.45653 10.2464C4.94255 10.4687 4.34658 10.5799 3.66862 10.5799C2.72814 10.5799 1.96088 10.3794 1.36673 9.97846C0.772572 9.57385 0.408051 8.99977 0.273163 8.25616L1.85332 8.01558C1.95175 8.42745 2.15406 8.73912 2.46024 8.95055C2.76642 9.1583 3.16558 9.26218 3.65768 9.26218C4.19349 9.26218 4.6218 9.15104 4.94255 8.92867C5.26335 8.70267 5.4237 8.42745 5.4237 8.10307C5.4237 7.8406 5.32527 7.6201 5.12846 7.44149C4.93529 7.26284 4.63818 7.128 4.2372 7.03689L2.81563 6.72521C2.03193 6.5466 1.4524 6.26226 1.07694 5.87228C0.705156 5.48224 0.519239 4.98832 0.519239 4.39052C0.519239 3.89479 0.657756 3.46102 0.93479 3.08922C1.21182 2.71742 1.59455 2.42763 2.08296 2.21986C2.57142 2.00845 3.13094 1.90274 3.76155 1.90274C4.6692 1.90274 5.38361 2.09957 5.90485 2.49325C6.42609 2.88327 6.7706 3.40634 6.93826 4.06246ZM12.1294 10.5799C11.3165 10.5799 10.6167 10.3958 10.0298 10.0277C9.44658 9.65584 8.99825 9.14373 8.68476 8.49123C8.37132 7.83879 8.21455 7.09155 8.21455 6.2495C8.21455 5.39657 8.37495 4.64386 8.6957 3.99138C9.01651 3.33526 9.46846 2.82313 10.0517 2.45497C10.6349 2.08682 11.322 1.90274 12.113 1.90274C12.7509 1.90274 13.3195 2.0212 13.8189 2.25814C14.3183 2.49143 14.7211 2.81948 15.0272 3.24232C15.3371 3.66515 15.5211 4.15906 15.5795 4.72405H13.9884C13.9009 4.33038 13.7004 3.99138 13.387 3.70707C13.0771 3.42275 12.6616 3.28059 12.1403 3.28059C11.6847 3.28059 11.2856 3.40088 10.9429 3.64145C10.6039 3.87838 10.3397 4.21738 10.1501 4.65843C9.96056 5.09585 9.86581 5.61344 9.86581 6.21123C9.86581 6.82364 9.95875 7.35214 10.1447 7.79689C10.3305 8.24158 10.593 8.58603 10.932 8.83024C11.2746 9.07445 11.6774 9.19658 12.1403 9.19658C12.4502 9.19658 12.7308 9.1401 12.9824 9.0271C13.2375 8.91047 13.4508 8.74457 13.6221 8.5295C13.797 8.31444 13.9192 8.05567 13.9884 7.75312H15.5795C15.5211 8.29624 15.3444 8.78102 15.0491 9.20752C14.7539 9.63401 14.3584 9.96933 13.8626 10.2135C13.3705 10.4578 12.7928 10.5799 12.1294 10.5799ZM20.5574 10.5799C19.77 10.5799 19.0829 10.3995 18.4961 10.0386C17.9092 9.67773 17.4536 9.17288 17.1292 8.52406C16.8048 7.87525 16.6425 7.11706 16.6425 6.2495C16.6425 5.37834 16.8048 4.61652 17.1292 3.96405C17.4536 3.31157 17.9092 2.8049 18.4961 2.44404C19.0829 2.08317 19.77 1.90274 20.5574 1.90274C21.3447 1.90274 22.0318 2.08317 22.6187 2.44404C23.2056 2.8049 23.6612 3.31157 23.9856 3.96405C24.31 4.61652 24.4722 5.37834 24.4722 6.2495C24.4722 7.11706 24.31 7.87525 23.9856 8.52406C23.6612 9.17288 23.2056 9.67773 22.6187 10.0386C22.0318 10.3995 21.3447 10.5799 20.5574 10.5799ZM20.5629 9.20752C21.0732 9.20752 21.496 9.07263 21.8313 8.80291C22.1667 8.53319 22.4146 8.17411 22.575 7.72579C22.739 7.27746 22.821 6.78355 22.821 6.24406C22.821 5.70824 22.739 5.21614 22.575 4.76779C22.4146 4.3158 22.1667 3.95311 21.8313 3.67973C21.496 3.40634 21.0732 3.26965 20.5629 3.26965C20.0489 3.26965 19.6224 3.40634 19.2834 3.67973C18.9481 3.95311 18.6984 4.3158 18.5344 4.76779C18.374 5.21614 18.2938 5.70824 18.2938 6.24406C18.2938 6.78355 18.374 7.27746 18.5344 7.72579C18.6984 8.17411 18.9481 8.53319 19.2834 8.80291C19.6224 9.07263 20.0489 9.20752 20.5629 9.20752ZM31.3091 6.92751V2.01209H32.9494V10.4104H31.342V8.956H31.2545C31.0613 9.40438 30.7514 9.77797 30.325 10.0769C29.9021 10.3721 29.3754 10.5198 28.7448 10.5198C28.2053 10.5198 27.7278 10.4013 27.3123 10.1644C26.9004 9.9238 26.576 9.56841 26.3391 9.09815C26.1057 8.62794 25.9891 8.04654 25.9891 7.35401V2.01209H27.6239V7.15715C27.6239 7.72942 27.7825 8.18505 28.0996 8.52406C28.4168 8.86307 28.8286 9.03254 29.3353 9.03254C29.6415 9.03254 29.9459 8.956 30.2484 8.80291C30.5546 8.64982 30.808 8.41837 31.0084 8.10851C31.2126 7.7987 31.3128 7.40504 31.3091 6.92751ZM38.7584 2.01209V3.32433H34.1711V2.01209H38.7584ZM35.4013 0H37.0361V7.94448C37.0361 8.2616 37.0835 8.50036 37.1783 8.66076C37.2731 8.81748 37.3951 8.92504 37.5446 8.98333C37.6977 9.03804 37.8635 9.06537 38.0422 9.06537C38.1734 9.06537 38.2882 9.05624 38.3866 9.03804C38.4851 9.01979 38.5616 9.00521 38.6163 8.99427L38.9115 10.3448C38.8168 10.3813 38.6819 10.4177 38.5069 10.4541C38.3319 10.4943 38.1132 10.5161 37.8508 10.5198C37.4206 10.527 37.0197 10.4505 36.6479 10.2901C36.2761 10.1297 35.9754 9.88185 35.7457 9.54653C35.5161 9.21115 35.4013 8.79015 35.4013 8.28348V0Z" fill="white"/>
</svg>
